<?xml version="1.0" encoding="UTF-8" standalone="no"?>
<!DOCTYPE svg PUBLIC "-//W3C//DTD SVG 1.1//EN" "http://www.w3.org/Graphics/SVG/1.1/DTD/svg11.dtd">
<svg width="100%" height="100%" viewBox="0 0 144 144" version="1.1" xmlns="http://www.w3.org/2000/svg" xmlns:xlink="http://www.w3.org/1999/xlink" xml:space="preserve" xmlns:serif="http://www.serif.com/" style="fill-rule:evenodd;clip-rule:evenodd;stroke-linejoin:round;stroke-miterlimit:2;">
    <g transform="matrix(1,0,0,1,-1140,-13)">
        <path d="M1212,13C1251.74,13 1284,45.262 1284,85C1284,124.738 1251.74,157 1212,157C1172.26,157 1140,124.738 1140,85C1140,45.262 1172.26,13 1212,13ZM1196.55,131.77L1191.61,131.77L1191.61,142.639L1196.88,142.639C1214.34,142.639 1224.39,135.229 1224.39,118.266L1224.39,27.361L1212.53,27.361L1212.53,114.972C1212.53,127.159 1207.59,131.77 1196.55,131.77Z" style="fill:white;"/>
    </g>
</svg>
